<?xml version="1.0" encoding="UTF-8"?>
<svg width="48px" height="48px" viewBox="0 0 48 48" version="1.1" xmlns="http://www.w3.org/2000/svg" xmlns:xlink="http://www.w3.org/1999/xlink">
    <title>Icons / Team / Product-Engineering</title>
    <g id="Icons-/-Team-/-Product-Engineering" stroke="none" stroke-width="1" fill="none" fill-rule="evenodd" stroke-linejoin="round">
        <line x1="22.8279805" y1="29.8536585" x2="12.2375415" y2="29.8536585" id="Stroke-13" stroke="#FFFFFF"></line>
        <line x1="25.0219317" y1="18.1463415" x2="35.6123707" y2="18.1463415" id="Stroke-21" stroke="#FFFFFF"></line>
        <line x1="6.384" y1="18.1463415" x2="6.384" y2="39.377561" id="Stroke-5" stroke="#FFFFFF"></line>
        <line x1="18.0913171" y1="46.6010927" x2="18.0913171" y2="35.7074341" id="Stroke-9" stroke="#FFFFFF"></line>
        <line x1="29.7585951" y1="1.39879024" x2="29.7585951" y2="12.2924488" id="Stroke-11" stroke="#FFFFFF"></line>
        <line x1="41.4659122" y1="29.8536585" x2="41.4659122" y2="8.62243902" id="Stroke-41" stroke="#FFFFFF"></line>
        <path d="M25.0619707,29.8536585 C25.0619707,30.4706341 24.5620683,30.9705366 23.9450927,30.9705366 C23.3292878,30.9705366 22.8282146,30.4706341 22.8282146,29.8536585 C22.8282146,29.2366829 23.3292878,28.7367805 23.9450927,28.7367805 C24.5620683,28.7367805 25.0619707,29.2366829 25.0619707,29.8536585 Z" id="Stroke-1" stroke="#FFFFFF"></path>
        <path d="M25.0619707,35.7073171 C25.0619707,36.3242927 24.5620683,36.8241951 23.9450927,36.8241951 C23.3292878,36.8241951 22.8282146,36.3242927 22.8282146,35.7073171 C22.8282146,35.0903415 23.3292878,34.590439 23.9450927,34.590439 C24.5620683,34.590439 25.0619707,35.0903415 25.0619707,35.7073171 Z" id="Stroke-3" stroke="#FFFFFF"></path>
        <line x1="12.2376585" y1="18.1463415" x2="12.2376585" y2="44.195122" id="Stroke-7" stroke="#FFFFFF"></line>
        <path d="M22.7879415,18.1463415 C22.7879415,17.5293659 23.2890146,17.0294634 23.9048195,17.0294634 C24.5217951,17.0294634 25.0216976,17.5293659 25.0216976,18.1463415 C25.0216976,18.7633171 24.5217951,19.2632195 23.9048195,19.2632195 C23.2890146,19.2632195 22.7879415,18.7633171 22.7879415,18.1463415 Z" id="Stroke-15" stroke="#FFFFFF"></path>
        <path d="M22.7879415,12.2926829 C22.7879415,11.6757073 23.2890146,11.1758049 23.9048195,11.1758049 C24.5217951,11.1758049 25.0216976,11.6757073 25.0216976,12.2926829 C25.0216976,12.9096585 24.5217951,13.409561 23.9048195,13.409561 C23.2890146,13.409561 22.7879415,12.9096585 22.7879415,12.2926829 Z" id="Stroke-17" stroke="#FFFFFF"></path>
        <line x1="35.6122537" y1="29.8536585" x2="35.6122537" y2="3.80487805" id="Stroke-19" stroke="#FFFFFF"></line>
        <polyline id="Stroke-23" stroke="#FFFFFF" points="2.66599024 0.585365854 8.51964878 0.585365854 8.51964878 6.43902439 14.3733073 6.43902439 14.3733073 12.2926829"></polyline>
        <polyline id="Stroke-25" stroke="#FFFFFF" points="8.51964878 12.2926829 2.66599024 12.2926829 2.66599024 6.43902439"></polyline>
        <polyline id="Stroke-27" stroke="#FFFFFF" points="39.3701854 35.7073171 45.2238439 35.7073171 45.2238439 41.5609756"></polyline>
        <path d="M8.52421463,6.44359024 C12.6381659,2.83890732 18.0258732,0.654321951 23.9251902,0.654321951 C36.838361,0.654321951 47.3047024,11.1230049 47.3047024,24.0350049 L41.4660293,24.0350049" id="Stroke-29" stroke="#FFFFFF"></path>
        <polyline id="Stroke-31" stroke="#FFFFFF" points="45.2238439 47.4146341 39.3701854 47.4146341 39.3701854 41.5609756 33.5165268 41.5609756 33.5165268 35.7073171"></polyline>
        <path d="M39.3667902,41.5562927 C35.252839,45.1609756 29.863961,47.345561 23.9658146,47.345561 C11.0526439,47.345561 0.585131707,36.876878 0.585131707,23.964878 L6.38376585,23.964878" id="Stroke-33" stroke="#FFFFFF"></path>
        <polyline id="Stroke-35" stroke="#FFFFFF" points="22.7879415 12.2926829 18.0722341 12.2926829 18.0722341 29.8536585"></polyline>
        <polyline id="Stroke-37" stroke="#FFFFFF" points="25.0619707 35.7073171 29.7788488 35.7073171 29.7788488 18.1463415"></polyline>
    </g>
</svg>